<svg xmlns="http://www.w3.org/2000/svg" viewBox="0 0 342.7 252.7"><path d="M170.9 241c-19-.1-37.8-4.5-55.9-12.1-20.9-8.8-39.7-21.2-56.8-36-21.7-18.9-40-40.8-54.5-65.8-.4-.6-.3-1 .1-1.6 11.2-19.4 24.8-37 40.6-52.8C61.5 55.6 80.5 41 102.1 29.8c15.3-7.9 31.4-13.6 48.4-16.4 14.5-2.4 29.1-2.3 43.6.2 24.9 4.4 47.4 14.6 68.2 28.8 31.3 21.3 56.5 48.5 75.9 81 1.3 2.2 1.3 3.6 0 5.8-20.3 33.9-46.7 62-79.8 83.6-16.6 10.9-34.5 19.1-53.8 24-10.9 2.7-21.9 4.2-33.7 4.2zM110.5 57.6c-1.6 1.6-3.2 3.1-4.8 4.7-20.3 21.6-28.7 47.3-25 76.7 2.7 21.2 12.2 39.3 27.7 54.1 15 14.2 32.8 22.3 53.3 24.4 3.6.4 7.2.3 10.9.3 2.5 0 5-.1 7.4-.7 21.1-4.6 34.4-24.2 31.2-45.5-2.9-19-19.9-33.6-39.1-33.8-4.3 0-8.6-.4-12.7-1.2-28.4-5.3-50.1-30.8-50.9-59.7-.2-6.5.5-12.9 2-19.3zm121.8 137.6c.5-.4.7-.5.9-.7 23.5-22.2 33.4-49.4 29.1-81.4-3.4-25.1-15.7-45.3-36-60.5-14.4-10.8-30.8-16.6-48.7-17.8-2.3-.1-4.6 0-6.9 0-1.4 0-2.8-.1-4.2.1-21.7 2.8-37 22.2-34.8 44 2 20.2 19.3 35.8 39.6 35.9 5 0 9.9.6 14.7 1.7 27.4 6.2 48 31.5 48.6 59.5.2 6.4-.5 12.7-2.3 19.2zm46.8-28.4c.4-.3.6-.5.9-.8 12-11.7 22.7-24.4 32-38.3.7-1.1.7-1.8 0-2.9-9.2-13.7-19.7-26.3-31.5-37.8l-.6-.6c-.2-.2-.4-.4-.8-.6 9.6 27.1 9.6 54 0 81zm-215.4 0c.1-.1.2-.1.3-.2-9.6-26.9-9.6-53.7.1-80.8-.3.3-.5.4-.6.5-12.2 11.9-23.1 24.8-32.5 39-.5.8-.5 1.3 0 2.1 8.1 12.1 17.2 23.4 27.4 33.8 1.7 1.8 3.5 3.7 5.3 5.6z"/></svg>