<?xml version="1.0" encoding="utf-8"?>
<!-- Generator: Adobe Illustrator 19.0.0, SVG Export Plug-In . SVG Version: 6.00 Build 0)  -->
<svg version="1.1" id="Calque_2" xmlns="http://www.w3.org/2000/svg" xmlns:xlink="http://www.w3.org/1999/xlink" x="0px" y="0px"
	 viewBox="0 0 342.7 252.7" style="enable-background:new 0 0 342.7 252.7;" xml:space="preserve">
<path d="M170.9,241c-19-0.1-37.8-4.5-55.9-12.1c-20.9-8.8-39.7-21.2-56.8-36C36.5,174,18.2,152.1,3.7,127.1c-0.4-0.6-0.3-1,0.1-1.6
	c11.2-19.4,24.8-37,40.6-52.8c17.1-17.1,36.1-31.7,57.7-42.9c15.3-7.9,31.4-13.6,48.4-16.4c14.5-2.4,29.1-2.3,43.6,0.2
	c24.9,4.4,47.4,14.6,68.2,28.8c31.3,21.3,56.5,48.5,75.9,81c1.3,2.2,1.3,3.6,0,5.8c-20.3,33.9-46.7,62-79.8,83.6
	c-16.6,10.9-34.5,19.1-53.8,24C193.7,239.5,182.7,241,170.9,241z M110.5,57.6c-1.6,1.6-3.2,3.1-4.8,4.7C85.4,83.9,77,109.6,80.7,139
	c2.7,21.2,12.2,39.3,27.7,54.1c15,14.2,32.8,22.3,53.3,24.4c3.6,0.4,7.2,0.3,10.9,0.3c2.5,0,5-0.1,7.4-0.7
	c21.1-4.6,34.4-24.2,31.2-45.5c-2.9-19-19.9-33.6-39.1-33.8c-4.3,0-8.6-0.4-12.7-1.2c-28.4-5.3-50.1-30.8-50.9-59.7
	C108.3,70.4,109,64,110.5,57.6z M232.3,195.2c0.5-0.4,0.7-0.5,0.9-0.7c23.5-22.2,33.4-49.4,29.1-81.4c-3.4-25.1-15.7-45.3-36-60.5
	c-14.4-10.8-30.8-16.6-48.7-17.8c-2.3-0.1-4.6,0-6.9,0c-1.4,0-2.8-0.1-4.2,0.1c-21.7,2.8-37,22.2-34.8,44
	c2,20.2,19.3,35.8,39.6,35.9c5,0,9.9,0.6,14.7,1.7c27.4,6.2,48,31.5,48.6,59.5C234.8,182.4,234.1,188.7,232.3,195.2z M279.1,166.8
	c0.4-0.3,0.6-0.5,0.9-0.8c12-11.7,22.7-24.4,32-38.3c0.7-1.1,0.7-1.8,0-2.9c-9.2-13.7-19.7-26.3-31.5-37.8c-0.2-0.2-0.4-0.4-0.6-0.6
	c-0.2-0.2-0.4-0.4-0.8-0.6C288.7,112.9,288.7,139.8,279.1,166.8z M63.7,166.8c0.1-0.1,0.2-0.1,0.3-0.2c-9.6-26.9-9.6-53.7,0.1-80.8
	c-0.3,0.3-0.5,0.4-0.6,0.5c-12.2,11.9-23.1,24.8-32.5,39c-0.5,0.8-0.5,1.3,0,2.1c8.1,12.1,17.2,23.4,27.4,33.8
	C60.1,163,61.9,164.9,63.7,166.8z"/>
</svg>
