<svg xmlns="http://www.w3.org/2000/svg" width="19" height="17" viewBox="0 0 19 17">
  <defs>
    <style>
      .cls-1 {
        fill: #f1f1e5;
        fill-rule: evenodd;
      }
    </style>
  </defs>
  <path class="cls-1" d="M479,125.939v15.1c0,0.7-.437,1.224-0.869.813-0.346-.328-7.264-6.968-7.855-7.536a1.3,1.3,0,0,1,0-1.636c0.425-.416,7.37-7.089,7.873-7.553C478.517,124.79,479,125.166,479,125.939Zm2.25,2.311a0.75,0.75,0,0,1,.75.75v8.5a0.75,0.75,0,0,1-1.5,0V129A0.75,0.75,0,0,1,481.25,128.25Zm2.5,2a0.75,0.75,0,0,1,.75.75v3.5a0.75,0.75,0,0,1-1.5,0V131A0.75,0.75,0,0,1,483.75,130.25Zm3.5-4a0.75,0.75,0,0,1,.75.75v11a0.75,0.75,0,0,1-1.5,0V127A0.75,0.75,0,0,1,487.25,126.25ZM469,130h6v7h-6v-7Z" transform="translate(-469 -125)"/>
</svg>
